<mxfile host="app.diagrams.net" modified="2024-08-05T08:09:46.009Z" agent="Mozilla/5.0 (Windows NT 10.0; Win64; x64) AppleWebKit/537.36 (KHTML, like Gecko) Chrome/127.0.0.0 Safari/537.36 Edg/127.0.0.0" etag="NFiI96XC3CScn2tt7sMz" version="24.6.5" type="github">
  <diagram name="第 1 页" id="0r5f2Rw01n3OPNtIbyRh">
    <mxGraphModel dx="1042" dy="533" grid="1" gridSize="10" guides="1" tooltips="1" connect="1" arrows="1" fold="1" page="1" pageScale="1" pageWidth="1000" pageHeight="1000" math="0" shadow="0">
      <root>
        <mxCell id="0" />
        <mxCell id="1" parent="0" />
        <mxCell id="cgjGeCCrp3cNuQxphGAQ-438" value="" style="rounded=0;whiteSpace=wrap;html=1;fillColor=#dae8fc;strokeColor=#6c8ebf;" vertex="1" parent="1">
          <mxGeometry y="40" width="142" height="20" as="geometry" />
        </mxCell>
        <mxCell id="cgjGeCCrp3cNuQxphGAQ-439" value="" style="rounded=0;whiteSpace=wrap;html=1;fillColor=#dae8fc;strokeColor=#6c8ebf;" vertex="1" parent="1">
          <mxGeometry y="60" width="142" height="20" as="geometry" />
        </mxCell>
        <mxCell id="cgjGeCCrp3cNuQxphGAQ-401" value="" style="rounded=0;whiteSpace=wrap;html=1;fillColor=#dae8fc;strokeColor=#6c8ebf;" vertex="1" parent="1">
          <mxGeometry y="190" width="218" height="20" as="geometry" />
        </mxCell>
        <mxCell id="cgjGeCCrp3cNuQxphGAQ-400" value="" style="rounded=0;whiteSpace=wrap;html=1;fillColor=#dae8fc;strokeColor=#6c8ebf;" vertex="1" parent="1">
          <mxGeometry y="170" width="218" height="20" as="geometry" />
        </mxCell>
        <mxCell id="cgjGeCCrp3cNuQxphGAQ-16" value="and" style="rounded=0;whiteSpace=wrap;html=1;fontSize=7;fillColor=#fff2cc;strokeColor=#d6b656;" vertex="1" parent="1">
          <mxGeometry x="14" y="170" width="24" height="20" as="geometry" />
        </mxCell>
        <mxCell id="cgjGeCCrp3cNuQxphGAQ-18" value="hand" style="rounded=0;whiteSpace=wrap;html=1;fontSize=7;fillColor=#fff2cc;strokeColor=#d6b656;" vertex="1" parent="1">
          <mxGeometry x="46" y="170" width="18" height="20" as="geometry" />
        </mxCell>
        <mxCell id="cgjGeCCrp3cNuQxphGAQ-20" value="it" style="rounded=0;whiteSpace=wrap;html=1;fontSize=7;fillColor=#fff2cc;strokeColor=#d6b656;" vertex="1" parent="1">
          <mxGeometry x="74" y="170" width="12" height="20" as="geometry" />
        </mxCell>
        <mxCell id="cgjGeCCrp3cNuQxphGAQ-21" value="over" style="rounded=0;whiteSpace=wrap;html=1;fontSize=7;fillColor=#fff2cc;strokeColor=#d6b656;" vertex="1" parent="1">
          <mxGeometry x="90" y="170" width="28" height="20" as="geometry" />
        </mxCell>
        <mxCell id="cgjGeCCrp3cNuQxphGAQ-22" value="to" style="rounded=0;whiteSpace=wrap;html=1;fontSize=7;fillColor=#fff2cc;strokeColor=#d6b656;" vertex="1" parent="1">
          <mxGeometry x="118" y="170" width="20" height="20" as="geometry" />
        </mxCell>
        <mxCell id="cgjGeCCrp3cNuQxphGAQ-23" value="you" style="rounded=0;whiteSpace=wrap;html=1;fontSize=7;fillColor=#fff2cc;strokeColor=#d6b656;" vertex="1" parent="1">
          <mxGeometry x="138" y="170" width="22" height="20" as="geometry" />
        </mxCell>
        <mxCell id="cgjGeCCrp3cNuQxphGAQ-30" value="and" style="rounded=0;whiteSpace=wrap;html=1;fontSize=7;fillColor=#ffe6cc;strokeColor=#d79b00;" vertex="1" parent="1">
          <mxGeometry x="14" y="190" width="32" height="20" as="geometry" />
        </mxCell>
        <mxCell id="cgjGeCCrp3cNuQxphGAQ-31" value="hand" style="rounded=0;whiteSpace=wrap;html=1;fontSize=7;fillColor=#ffe6cc;strokeColor=#d79b00;" vertex="1" parent="1">
          <mxGeometry x="46" y="190" width="28" height="20" as="geometry" />
        </mxCell>
        <mxCell id="cgjGeCCrp3cNuQxphGAQ-32" value="it" style="rounded=0;whiteSpace=wrap;html=1;fontSize=7;fillColor=#ffe6cc;strokeColor=#d79b00;" vertex="1" parent="1">
          <mxGeometry x="74" y="190" width="16" height="20" as="geometry" />
        </mxCell>
        <mxCell id="cgjGeCCrp3cNuQxphGAQ-33" value="over" style="rounded=0;whiteSpace=wrap;html=1;fontSize=7;fillColor=#ffe6cc;strokeColor=#d79b00;" vertex="1" parent="1">
          <mxGeometry x="90" y="190" width="28" height="20" as="geometry" />
        </mxCell>
        <mxCell id="cgjGeCCrp3cNuQxphGAQ-34" value="to" style="rounded=0;whiteSpace=wrap;html=1;fontSize=7;fillColor=#ffe6cc;strokeColor=#d79b00;" vertex="1" parent="1">
          <mxGeometry x="118" y="190" width="20" height="20" as="geometry" />
        </mxCell>
        <mxCell id="cgjGeCCrp3cNuQxphGAQ-36" value="you" style="rounded=0;whiteSpace=wrap;html=1;fontSize=7;fillColor=#ffe6cc;strokeColor=#d79b00;" vertex="1" parent="1">
          <mxGeometry x="138" y="190" width="46" height="20" as="geometry" />
        </mxCell>
        <mxCell id="cgjGeCCrp3cNuQxphGAQ-1" value="f1" style="rounded=0;whiteSpace=wrap;html=1;fillColor=#f5f5f5;fontColor=#333333;strokeColor=#666666;fontSize=7;" vertex="1" parent="1">
          <mxGeometry y="210" width="24" height="20" as="geometry" />
        </mxCell>
        <mxCell id="cgjGeCCrp3cNuQxphGAQ-3" value="f2" style="rounded=0;whiteSpace=wrap;html=1;fillColor=#f5f5f5;fontColor=#333333;strokeColor=#666666;fontSize=7;" vertex="1" parent="1">
          <mxGeometry x="24" y="210" width="24" height="20" as="geometry" />
        </mxCell>
        <mxCell id="cgjGeCCrp3cNuQxphGAQ-4" value="f3" style="rounded=0;whiteSpace=wrap;html=1;fillColor=#f5f5f5;fontColor=#333333;strokeColor=#666666;fontSize=7;" vertex="1" parent="1">
          <mxGeometry x="48" y="210" width="24" height="20" as="geometry" />
        </mxCell>
        <mxCell id="cgjGeCCrp3cNuQxphGAQ-5" value="f4" style="rounded=0;whiteSpace=wrap;html=1;fillColor=#f5f5f5;fontColor=#333333;strokeColor=#666666;fontSize=7;" vertex="1" parent="1">
          <mxGeometry x="72" y="210" width="24" height="20" as="geometry" />
        </mxCell>
        <mxCell id="cgjGeCCrp3cNuQxphGAQ-6" value="f5" style="rounded=0;whiteSpace=wrap;html=1;fillColor=#f5f5f5;fontColor=#333333;strokeColor=#666666;fontSize=7;" vertex="1" parent="1">
          <mxGeometry x="96" y="210" width="24" height="20" as="geometry" />
        </mxCell>
        <mxCell id="cgjGeCCrp3cNuQxphGAQ-7" value="f6" style="rounded=0;whiteSpace=wrap;html=1;fillColor=#f5f5f5;fontColor=#333333;strokeColor=#666666;fontSize=7;" vertex="1" parent="1">
          <mxGeometry x="120" y="210" width="24" height="20" as="geometry" />
        </mxCell>
        <mxCell id="cgjGeCCrp3cNuQxphGAQ-8" value="f7" style="rounded=0;whiteSpace=wrap;html=1;fillColor=#f5f5f5;fontColor=#333333;strokeColor=#666666;fontSize=7;" vertex="1" parent="1">
          <mxGeometry x="144" y="210" width="24" height="20" as="geometry" />
        </mxCell>
        <mxCell id="cgjGeCCrp3cNuQxphGAQ-9" value="f8" style="rounded=0;whiteSpace=wrap;html=1;fillColor=#f5f5f5;fontColor=#333333;strokeColor=#666666;fontSize=7;" vertex="1" parent="1">
          <mxGeometry x="168" y="210" width="24" height="20" as="geometry" />
        </mxCell>
        <mxCell id="cgjGeCCrp3cNuQxphGAQ-10" value="f9" style="rounded=0;whiteSpace=wrap;html=1;fillColor=#f5f5f5;fontColor=#333333;strokeColor=#666666;fontSize=7;" vertex="1" parent="1">
          <mxGeometry x="192" y="210" width="24" height="20" as="geometry" />
        </mxCell>
        <mxCell id="cgjGeCCrp3cNuQxphGAQ-39" value="EOS" style="rounded=0;whiteSpace=wrap;html=1;fontSize=7;fillColor=#f8cecc;strokeColor=#b85450;" vertex="1" parent="1">
          <mxGeometry x="216" y="210" width="24" height="20" as="geometry" />
        </mxCell>
        <mxCell id="cgjGeCCrp3cNuQxphGAQ-53" value="" style="endArrow=none;html=1;strokeWidth=2;rounded=0;fillColor=#f8cecc;strokeColor=#b85450;fontSize=7;" edge="1" parent="1">
          <mxGeometry width="50" height="50" relative="1" as="geometry">
            <mxPoint x="218" y="210" as="sourcePoint" />
            <mxPoint x="218" y="160" as="targetPoint" />
          </mxGeometry>
        </mxCell>
        <mxCell id="cgjGeCCrp3cNuQxphGAQ-193" value="f1" style="rounded=0;whiteSpace=wrap;html=1;fillColor=#f5f5f5;fontColor=#333333;strokeColor=#666666;fontSize=6;" vertex="1" parent="1">
          <mxGeometry x="280" y="150" width="24" height="20" as="geometry" />
        </mxCell>
        <mxCell id="cgjGeCCrp3cNuQxphGAQ-194" value="f2" style="rounded=0;whiteSpace=wrap;html=1;fillColor=#f5f5f5;fontColor=#333333;strokeColor=#666666;fontSize=6;" vertex="1" parent="1">
          <mxGeometry x="304" y="150" width="24" height="20" as="geometry" />
        </mxCell>
        <mxCell id="cgjGeCCrp3cNuQxphGAQ-196" value="f3" style="rounded=0;whiteSpace=wrap;html=1;fillColor=#f5f5f5;fontColor=#333333;strokeColor=#666666;fontSize=6;" vertex="1" parent="1">
          <mxGeometry x="352" y="150" width="24" height="20" as="geometry" />
        </mxCell>
        <mxCell id="cgjGeCCrp3cNuQxphGAQ-197" value="f4" style="rounded=0;whiteSpace=wrap;html=1;fillColor=#f5f5f5;fontColor=#333333;strokeColor=#666666;fontSize=6;" vertex="1" parent="1">
          <mxGeometry x="376" y="150" width="24" height="20" as="geometry" />
        </mxCell>
        <mxCell id="cgjGeCCrp3cNuQxphGAQ-200" value="f5" style="rounded=0;whiteSpace=wrap;html=1;fillColor=#f5f5f5;fontColor=#333333;strokeColor=#666666;fontSize=6;" vertex="1" parent="1">
          <mxGeometry x="448" y="150" width="24" height="20" as="geometry" />
        </mxCell>
        <mxCell id="cgjGeCCrp3cNuQxphGAQ-202" value="f6" style="rounded=0;whiteSpace=wrap;html=1;fillColor=#f5f5f5;fontColor=#333333;strokeColor=#666666;fontSize=6;" vertex="1" parent="1">
          <mxGeometry x="496" y="150" width="24" height="20" as="geometry" />
        </mxCell>
        <mxCell id="cgjGeCCrp3cNuQxphGAQ-204" value="f7" style="rounded=0;whiteSpace=wrap;html=1;fillColor=#f5f5f5;fontColor=#333333;strokeColor=#666666;fontSize=6;" vertex="1" parent="1">
          <mxGeometry x="544" y="150" width="24" height="20" as="geometry" />
        </mxCell>
        <mxCell id="cgjGeCCrp3cNuQxphGAQ-206" value="f8" style="rounded=0;whiteSpace=wrap;html=1;fillColor=#f5f5f5;fontColor=#333333;strokeColor=#666666;fontSize=6;" vertex="1" parent="1">
          <mxGeometry x="568" y="150" width="24" height="20" as="geometry" />
        </mxCell>
        <mxCell id="cgjGeCCrp3cNuQxphGAQ-221" value="f1" style="rounded=0;whiteSpace=wrap;html=1;fillColor=#f5f5f5;fontColor=#333333;strokeColor=#666666;fontSize=6;" vertex="1" parent="1">
          <mxGeometry x="280" y="170" width="24" height="20" as="geometry" />
        </mxCell>
        <mxCell id="cgjGeCCrp3cNuQxphGAQ-222" value="f2" style="rounded=0;whiteSpace=wrap;html=1;fillColor=#f5f5f5;fontColor=#333333;strokeColor=#666666;fontSize=6;" vertex="1" parent="1">
          <mxGeometry x="304" y="170" width="24" height="20" as="geometry" />
        </mxCell>
        <mxCell id="cgjGeCCrp3cNuQxphGAQ-224" value="f3" style="rounded=0;whiteSpace=wrap;html=1;fillColor=#f5f5f5;fontColor=#333333;strokeColor=#666666;fontSize=6;" vertex="1" parent="1">
          <mxGeometry x="352" y="170" width="24" height="20" as="geometry" />
        </mxCell>
        <mxCell id="cgjGeCCrp3cNuQxphGAQ-225" value="f4" style="rounded=0;whiteSpace=wrap;html=1;fillColor=#f5f5f5;fontColor=#333333;strokeColor=#666666;fontSize=6;" vertex="1" parent="1">
          <mxGeometry x="376" y="170" width="24" height="20" as="geometry" />
        </mxCell>
        <mxCell id="cgjGeCCrp3cNuQxphGAQ-228" value="f5" style="rounded=0;whiteSpace=wrap;html=1;fillColor=#f5f5f5;fontColor=#333333;strokeColor=#666666;fontSize=6;" vertex="1" parent="1">
          <mxGeometry x="448" y="170" width="24" height="20" as="geometry" />
        </mxCell>
        <mxCell id="cgjGeCCrp3cNuQxphGAQ-230" value="f6" style="rounded=0;whiteSpace=wrap;html=1;fillColor=#f5f5f5;fontColor=#333333;strokeColor=#666666;fontSize=6;" vertex="1" parent="1">
          <mxGeometry x="496" y="170" width="24" height="20" as="geometry" />
        </mxCell>
        <mxCell id="cgjGeCCrp3cNuQxphGAQ-232" value="f7" style="rounded=0;whiteSpace=wrap;html=1;fillColor=#f5f5f5;fontColor=#333333;strokeColor=#666666;fontSize=6;" vertex="1" parent="1">
          <mxGeometry x="544" y="170" width="24" height="20" as="geometry" />
        </mxCell>
        <mxCell id="cgjGeCCrp3cNuQxphGAQ-234" value="f8" style="rounded=0;whiteSpace=wrap;html=1;fillColor=#f5f5f5;fontColor=#333333;strokeColor=#666666;fontSize=6;" vertex="1" parent="1">
          <mxGeometry x="568" y="170" width="24" height="20" as="geometry" />
        </mxCell>
        <mxCell id="cgjGeCCrp3cNuQxphGAQ-235" value="BLANK" style="rounded=0;whiteSpace=wrap;html=1;fontSize=6;fillColor=#e1d5e7;strokeColor=#9673a6;" vertex="1" parent="1">
          <mxGeometry x="616" y="170" width="24" height="20" as="geometry" />
        </mxCell>
        <mxCell id="cgjGeCCrp3cNuQxphGAQ-236" value="f1" style="rounded=0;whiteSpace=wrap;html=1;fillColor=#f5f5f5;fontColor=#333333;strokeColor=#666666;fontSize=6;" vertex="1" parent="1">
          <mxGeometry x="280" y="190" width="24" height="20" as="geometry" />
        </mxCell>
        <mxCell id="cgjGeCCrp3cNuQxphGAQ-237" value="f2" style="rounded=0;whiteSpace=wrap;html=1;fillColor=#f5f5f5;fontColor=#333333;strokeColor=#666666;fontSize=6;" vertex="1" parent="1">
          <mxGeometry x="304" y="190" width="24" height="20" as="geometry" />
        </mxCell>
        <mxCell id="cgjGeCCrp3cNuQxphGAQ-239" value="f3" style="rounded=0;whiteSpace=wrap;html=1;fillColor=#f5f5f5;fontColor=#333333;strokeColor=#666666;fontSize=6;" vertex="1" parent="1">
          <mxGeometry x="352" y="190" width="24" height="20" as="geometry" />
        </mxCell>
        <mxCell id="cgjGeCCrp3cNuQxphGAQ-240" value="f4" style="rounded=0;whiteSpace=wrap;html=1;fillColor=#f5f5f5;fontColor=#333333;strokeColor=#666666;fontSize=6;" vertex="1" parent="1">
          <mxGeometry x="376" y="190" width="24" height="20" as="geometry" />
        </mxCell>
        <mxCell id="cgjGeCCrp3cNuQxphGAQ-243" value="f5" style="rounded=0;whiteSpace=wrap;html=1;fillColor=#f5f5f5;fontColor=#333333;strokeColor=#666666;fontSize=6;" vertex="1" parent="1">
          <mxGeometry x="448" y="190" width="24" height="20" as="geometry" />
        </mxCell>
        <mxCell id="cgjGeCCrp3cNuQxphGAQ-245" value="f6" style="rounded=0;whiteSpace=wrap;html=1;fillColor=#f5f5f5;fontColor=#333333;strokeColor=#666666;fontSize=6;" vertex="1" parent="1">
          <mxGeometry x="496" y="190" width="24" height="20" as="geometry" />
        </mxCell>
        <mxCell id="cgjGeCCrp3cNuQxphGAQ-247" value="f7" style="rounded=0;whiteSpace=wrap;html=1;fillColor=#f5f5f5;fontColor=#333333;strokeColor=#666666;fontSize=6;" vertex="1" parent="1">
          <mxGeometry x="544" y="190" width="24" height="20" as="geometry" />
        </mxCell>
        <mxCell id="cgjGeCCrp3cNuQxphGAQ-249" value="f8" style="rounded=0;whiteSpace=wrap;html=1;fillColor=#f5f5f5;fontColor=#333333;strokeColor=#666666;fontSize=6;" vertex="1" parent="1">
          <mxGeometry x="568" y="190" width="24" height="20" as="geometry" />
        </mxCell>
        <mxCell id="cgjGeCCrp3cNuQxphGAQ-251" value="f9" style="rounded=0;whiteSpace=wrap;html=1;fillColor=#f5f5f5;fontColor=#333333;strokeColor=#666666;fontSize=6;" vertex="1" parent="1">
          <mxGeometry x="616" y="190" width="24" height="20" as="geometry" />
        </mxCell>
        <mxCell id="cgjGeCCrp3cNuQxphGAQ-252" value="BLANK" style="rounded=0;whiteSpace=wrap;html=1;fontSize=6;fillColor=#e1d5e7;strokeColor=#9673a6;" vertex="1" parent="1">
          <mxGeometry x="640" y="190" width="24" height="20" as="geometry" />
        </mxCell>
        <mxCell id="cgjGeCCrp3cNuQxphGAQ-253" value="f1" style="rounded=0;whiteSpace=wrap;html=1;fillColor=#f5f5f5;fontColor=#333333;strokeColor=#666666;fontSize=6;" vertex="1" parent="1">
          <mxGeometry x="280" y="210" width="24" height="20" as="geometry" />
        </mxCell>
        <mxCell id="cgjGeCCrp3cNuQxphGAQ-254" value="f2" style="rounded=0;whiteSpace=wrap;html=1;fillColor=#f5f5f5;fontColor=#333333;strokeColor=#666666;fontSize=6;" vertex="1" parent="1">
          <mxGeometry x="304" y="210" width="24" height="20" as="geometry" />
        </mxCell>
        <mxCell id="cgjGeCCrp3cNuQxphGAQ-256" value="f3" style="rounded=0;whiteSpace=wrap;html=1;fillColor=#f5f5f5;fontColor=#333333;strokeColor=#666666;fontSize=6;" vertex="1" parent="1">
          <mxGeometry x="352" y="210" width="24" height="20" as="geometry" />
        </mxCell>
        <mxCell id="cgjGeCCrp3cNuQxphGAQ-257" value="f4" style="rounded=0;whiteSpace=wrap;html=1;fillColor=#f5f5f5;fontColor=#333333;strokeColor=#666666;fontSize=6;" vertex="1" parent="1">
          <mxGeometry x="376" y="210" width="24" height="20" as="geometry" />
        </mxCell>
        <mxCell id="cgjGeCCrp3cNuQxphGAQ-260" value="f5" style="rounded=0;whiteSpace=wrap;html=1;fillColor=#f5f5f5;fontColor=#333333;strokeColor=#666666;fontSize=6;" vertex="1" parent="1">
          <mxGeometry x="448" y="210" width="24" height="20" as="geometry" />
        </mxCell>
        <mxCell id="cgjGeCCrp3cNuQxphGAQ-262" value="f6" style="rounded=0;whiteSpace=wrap;html=1;fillColor=#f5f5f5;fontColor=#333333;strokeColor=#666666;fontSize=6;" vertex="1" parent="1">
          <mxGeometry x="496" y="210" width="24" height="20" as="geometry" />
        </mxCell>
        <mxCell id="cgjGeCCrp3cNuQxphGAQ-264" value="f7" style="rounded=0;whiteSpace=wrap;html=1;fillColor=#f5f5f5;fontColor=#333333;strokeColor=#666666;fontSize=6;" vertex="1" parent="1">
          <mxGeometry x="544" y="210" width="24" height="20" as="geometry" />
        </mxCell>
        <mxCell id="cgjGeCCrp3cNuQxphGAQ-266" value="f8" style="rounded=0;whiteSpace=wrap;html=1;fillColor=#f5f5f5;fontColor=#333333;strokeColor=#666666;fontSize=6;" vertex="1" parent="1">
          <mxGeometry x="568" y="210" width="24" height="20" as="geometry" />
        </mxCell>
        <mxCell id="cgjGeCCrp3cNuQxphGAQ-267" value="f9" style="rounded=0;whiteSpace=wrap;html=1;fillColor=#f5f5f5;fontColor=#333333;strokeColor=#666666;fontSize=6;" vertex="1" parent="1">
          <mxGeometry x="616" y="210" width="24" height="20" as="geometry" />
        </mxCell>
        <mxCell id="cgjGeCCrp3cNuQxphGAQ-269" value="EOS" style="rounded=0;whiteSpace=wrap;html=1;fillColor=#f5f5f5;fontColor=#333333;strokeColor=#666666;fontSize=6;" vertex="1" parent="1">
          <mxGeometry x="640" y="210" width="24" height="20" as="geometry" />
        </mxCell>
        <mxCell id="cgjGeCCrp3cNuQxphGAQ-270" value="EOS" style="rounded=0;whiteSpace=wrap;html=1;fontSize=6;fillColor=#e1d5e7;strokeColor=#9673a6;" vertex="1" parent="1">
          <mxGeometry x="664" y="210" width="24" height="20" as="geometry" />
        </mxCell>
        <mxCell id="cgjGeCCrp3cNuQxphGAQ-195" value="and" style="rounded=0;whiteSpace=wrap;html=1;fontSize=6;fillColor=#dae8fc;strokeColor=#6c8ebf;" vertex="1" parent="1">
          <mxGeometry x="328" y="150" width="24" height="20" as="geometry" />
        </mxCell>
        <mxCell id="cgjGeCCrp3cNuQxphGAQ-223" value="and" style="rounded=0;whiteSpace=wrap;html=1;fontSize=6;fillColor=#dae8fc;strokeColor=#6c8ebf;" vertex="1" parent="1">
          <mxGeometry x="328" y="170" width="24" height="20" as="geometry" />
        </mxCell>
        <mxCell id="cgjGeCCrp3cNuQxphGAQ-238" value="and" style="rounded=0;whiteSpace=wrap;html=1;fontSize=6;fillColor=#dae8fc;strokeColor=#6c8ebf;" vertex="1" parent="1">
          <mxGeometry x="328" y="190" width="24" height="20" as="geometry" />
        </mxCell>
        <mxCell id="cgjGeCCrp3cNuQxphGAQ-255" value="and" style="rounded=0;whiteSpace=wrap;html=1;fontSize=6;fillColor=#dae8fc;strokeColor=#6c8ebf;" vertex="1" parent="1">
          <mxGeometry x="328" y="210" width="24" height="20" as="geometry" />
        </mxCell>
        <mxCell id="cgjGeCCrp3cNuQxphGAQ-198" value="hand" style="rounded=0;whiteSpace=wrap;html=1;fontSize=6;fillColor=#dae8fc;strokeColor=#6c8ebf;" vertex="1" parent="1">
          <mxGeometry x="400" y="150" width="24" height="20" as="geometry" />
        </mxCell>
        <mxCell id="cgjGeCCrp3cNuQxphGAQ-199" value="it" style="rounded=0;whiteSpace=wrap;html=1;fontSize=6;fillColor=#dae8fc;strokeColor=#6c8ebf;" vertex="1" parent="1">
          <mxGeometry x="424" y="150" width="24" height="20" as="geometry" />
        </mxCell>
        <mxCell id="cgjGeCCrp3cNuQxphGAQ-226" value="hand" style="rounded=0;whiteSpace=wrap;html=1;fontSize=6;fillColor=#dae8fc;strokeColor=#6c8ebf;" vertex="1" parent="1">
          <mxGeometry x="400" y="170" width="24" height="20" as="geometry" />
        </mxCell>
        <mxCell id="cgjGeCCrp3cNuQxphGAQ-227" value="it" style="rounded=0;whiteSpace=wrap;html=1;fontSize=6;fillColor=#dae8fc;strokeColor=#6c8ebf;" vertex="1" parent="1">
          <mxGeometry x="424" y="170" width="24" height="20" as="geometry" />
        </mxCell>
        <mxCell id="cgjGeCCrp3cNuQxphGAQ-241" value="hand" style="rounded=0;whiteSpace=wrap;html=1;fontSize=6;fillColor=#dae8fc;strokeColor=#6c8ebf;" vertex="1" parent="1">
          <mxGeometry x="400" y="190" width="24" height="20" as="geometry" />
        </mxCell>
        <mxCell id="cgjGeCCrp3cNuQxphGAQ-242" value="it" style="rounded=0;whiteSpace=wrap;html=1;fontSize=6;fillColor=#dae8fc;strokeColor=#6c8ebf;" vertex="1" parent="1">
          <mxGeometry x="424" y="190" width="24" height="20" as="geometry" />
        </mxCell>
        <mxCell id="cgjGeCCrp3cNuQxphGAQ-258" value="hand" style="rounded=0;whiteSpace=wrap;html=1;fontSize=6;fillColor=#dae8fc;strokeColor=#6c8ebf;" vertex="1" parent="1">
          <mxGeometry x="400" y="210" width="24" height="20" as="geometry" />
        </mxCell>
        <mxCell id="cgjGeCCrp3cNuQxphGAQ-259" value="it" style="rounded=0;whiteSpace=wrap;html=1;fontSize=6;fillColor=#dae8fc;strokeColor=#6c8ebf;" vertex="1" parent="1">
          <mxGeometry x="424" y="210" width="24" height="20" as="geometry" />
        </mxCell>
        <mxCell id="cgjGeCCrp3cNuQxphGAQ-201" value="over" style="rounded=0;whiteSpace=wrap;html=1;fontSize=6;fillColor=#dae8fc;strokeColor=#6c8ebf;" vertex="1" parent="1">
          <mxGeometry x="472" y="150" width="24" height="20" as="geometry" />
        </mxCell>
        <mxCell id="cgjGeCCrp3cNuQxphGAQ-229" value="over" style="rounded=0;whiteSpace=wrap;html=1;fontSize=6;fillColor=#dae8fc;strokeColor=#6c8ebf;" vertex="1" parent="1">
          <mxGeometry x="472" y="170" width="24" height="20" as="geometry" />
        </mxCell>
        <mxCell id="cgjGeCCrp3cNuQxphGAQ-244" value="over" style="rounded=0;whiteSpace=wrap;html=1;fontSize=6;fillColor=#dae8fc;strokeColor=#6c8ebf;" vertex="1" parent="1">
          <mxGeometry x="472" y="190" width="24" height="20" as="geometry" />
        </mxCell>
        <mxCell id="cgjGeCCrp3cNuQxphGAQ-261" value="over" style="rounded=0;whiteSpace=wrap;html=1;fontSize=6;fillColor=#dae8fc;strokeColor=#6c8ebf;" vertex="1" parent="1">
          <mxGeometry x="472" y="210" width="24" height="20" as="geometry" />
        </mxCell>
        <mxCell id="cgjGeCCrp3cNuQxphGAQ-203" value="to" style="rounded=0;whiteSpace=wrap;html=1;fontSize=6;fillColor=#dae8fc;strokeColor=#6c8ebf;" vertex="1" parent="1">
          <mxGeometry x="520" y="150" width="24" height="20" as="geometry" />
        </mxCell>
        <mxCell id="cgjGeCCrp3cNuQxphGAQ-231" value="to" style="rounded=0;whiteSpace=wrap;html=1;fontSize=6;fillColor=#dae8fc;strokeColor=#6c8ebf;" vertex="1" parent="1">
          <mxGeometry x="520" y="170" width="24" height="20" as="geometry" />
        </mxCell>
        <mxCell id="cgjGeCCrp3cNuQxphGAQ-246" value="to" style="rounded=0;whiteSpace=wrap;html=1;fontSize=6;fillColor=#dae8fc;strokeColor=#6c8ebf;" vertex="1" parent="1">
          <mxGeometry x="520" y="190" width="24" height="20" as="geometry" />
        </mxCell>
        <mxCell id="cgjGeCCrp3cNuQxphGAQ-263" value="to" style="rounded=0;whiteSpace=wrap;html=1;fontSize=6;fillColor=#dae8fc;strokeColor=#6c8ebf;" vertex="1" parent="1">
          <mxGeometry x="520" y="210" width="24" height="20" as="geometry" />
        </mxCell>
        <mxCell id="cgjGeCCrp3cNuQxphGAQ-205" value="you" style="rounded=0;whiteSpace=wrap;html=1;fontSize=6;fillColor=#e1d5e7;strokeColor=#9673a6;" vertex="1" parent="1">
          <mxGeometry x="592" y="150" width="24" height="20" as="geometry" />
        </mxCell>
        <mxCell id="cgjGeCCrp3cNuQxphGAQ-233" value="you" style="rounded=0;whiteSpace=wrap;html=1;fontSize=6;fillColor=#dae8fc;strokeColor=#6c8ebf;" vertex="1" parent="1">
          <mxGeometry x="592" y="170" width="24" height="20" as="geometry" />
        </mxCell>
        <mxCell id="cgjGeCCrp3cNuQxphGAQ-248" value="you" style="rounded=0;whiteSpace=wrap;html=1;fontSize=6;fillColor=#dae8fc;strokeColor=#6c8ebf;" vertex="1" parent="1">
          <mxGeometry x="592" y="190" width="24" height="20" as="geometry" />
        </mxCell>
        <mxCell id="cgjGeCCrp3cNuQxphGAQ-265" value="you" style="rounded=0;whiteSpace=wrap;html=1;fontSize=6;fillColor=#dae8fc;strokeColor=#6c8ebf;" vertex="1" parent="1">
          <mxGeometry x="592" y="210" width="24" height="20" as="geometry" />
        </mxCell>
        <mxCell id="cgjGeCCrp3cNuQxphGAQ-379" value="f1" style="rounded=0;whiteSpace=wrap;html=1;fillColor=#f5f5f5;fontColor=#333333;strokeColor=#666666;fontSize=6;" vertex="1" parent="1">
          <mxGeometry x="280" y="20" width="24" height="20" as="geometry" />
        </mxCell>
        <mxCell id="cgjGeCCrp3cNuQxphGAQ-380" value="f2" style="rounded=0;whiteSpace=wrap;html=1;fillColor=#f5f5f5;fontColor=#333333;strokeColor=#666666;fontSize=6;" vertex="1" parent="1">
          <mxGeometry x="304" y="20" width="24" height="20" as="geometry" />
        </mxCell>
        <mxCell id="cgjGeCCrp3cNuQxphGAQ-381" value="f3" style="rounded=0;whiteSpace=wrap;html=1;fillColor=#f5f5f5;fontColor=#333333;strokeColor=#666666;fontSize=6;" vertex="1" parent="1">
          <mxGeometry x="352" y="20" width="24" height="20" as="geometry" />
        </mxCell>
        <mxCell id="cgjGeCCrp3cNuQxphGAQ-382" value="f4" style="rounded=0;whiteSpace=wrap;html=1;fillColor=#f5f5f5;fontColor=#333333;strokeColor=#666666;fontSize=6;" vertex="1" parent="1">
          <mxGeometry x="376" y="20" width="24" height="20" as="geometry" />
        </mxCell>
        <mxCell id="cgjGeCCrp3cNuQxphGAQ-383" value="f5" style="rounded=0;whiteSpace=wrap;html=1;fillColor=#f5f5f5;fontColor=#333333;strokeColor=#666666;fontSize=6;" vertex="1" parent="1">
          <mxGeometry x="448" y="20" width="24" height="20" as="geometry" />
        </mxCell>
        <mxCell id="cgjGeCCrp3cNuQxphGAQ-384" value="and" style="rounded=0;whiteSpace=wrap;html=1;fontSize=6;fillColor=#dae8fc;strokeColor=#6c8ebf;" vertex="1" parent="1">
          <mxGeometry x="328" y="20" width="24" height="20" as="geometry" />
        </mxCell>
        <mxCell id="cgjGeCCrp3cNuQxphGAQ-385" value="hand" style="rounded=0;whiteSpace=wrap;html=1;fontSize=6;fillColor=#dae8fc;strokeColor=#6c8ebf;" vertex="1" parent="1">
          <mxGeometry x="400" y="20" width="24" height="20" as="geometry" />
        </mxCell>
        <mxCell id="cgjGeCCrp3cNuQxphGAQ-386" value="it" style="rounded=0;whiteSpace=wrap;html=1;fontSize=6;fillColor=#dae8fc;strokeColor=#6c8ebf;" vertex="1" parent="1">
          <mxGeometry x="424" y="20" width="24" height="20" as="geometry" />
        </mxCell>
        <mxCell id="cgjGeCCrp3cNuQxphGAQ-387" value="over" style="rounded=0;whiteSpace=wrap;html=1;fontSize=6;fillColor=#e1d5e7;strokeColor=#9673a6;" vertex="1" parent="1">
          <mxGeometry x="472" y="20" width="24" height="20" as="geometry" />
        </mxCell>
        <mxCell id="cgjGeCCrp3cNuQxphGAQ-388" value="f1" style="rounded=0;whiteSpace=wrap;html=1;fillColor=#f5f5f5;fontColor=#333333;strokeColor=#666666;fontSize=6;" vertex="1" parent="1">
          <mxGeometry x="280" y="40" width="24" height="20" as="geometry" />
        </mxCell>
        <mxCell id="cgjGeCCrp3cNuQxphGAQ-389" value="f2" style="rounded=0;whiteSpace=wrap;html=1;fillColor=#f5f5f5;fontColor=#333333;strokeColor=#666666;fontSize=6;" vertex="1" parent="1">
          <mxGeometry x="304" y="40" width="24" height="20" as="geometry" />
        </mxCell>
        <mxCell id="cgjGeCCrp3cNuQxphGAQ-390" value="f3" style="rounded=0;whiteSpace=wrap;html=1;fillColor=#f5f5f5;fontColor=#333333;strokeColor=#666666;fontSize=6;" vertex="1" parent="1">
          <mxGeometry x="352" y="40" width="24" height="20" as="geometry" />
        </mxCell>
        <mxCell id="cgjGeCCrp3cNuQxphGAQ-391" value="f4" style="rounded=0;whiteSpace=wrap;html=1;fillColor=#f5f5f5;fontColor=#333333;strokeColor=#666666;fontSize=6;" vertex="1" parent="1">
          <mxGeometry x="376" y="40" width="24" height="20" as="geometry" />
        </mxCell>
        <mxCell id="cgjGeCCrp3cNuQxphGAQ-392" value="f5" style="rounded=0;whiteSpace=wrap;html=1;fillColor=#f5f5f5;fontColor=#333333;strokeColor=#666666;fontSize=6;" vertex="1" parent="1">
          <mxGeometry x="448" y="40" width="24" height="20" as="geometry" />
        </mxCell>
        <mxCell id="cgjGeCCrp3cNuQxphGAQ-393" value="and" style="rounded=0;whiteSpace=wrap;html=1;fontSize=6;fillColor=#dae8fc;strokeColor=#6c8ebf;" vertex="1" parent="1">
          <mxGeometry x="328" y="40" width="24" height="20" as="geometry" />
        </mxCell>
        <mxCell id="cgjGeCCrp3cNuQxphGAQ-394" value="hand" style="rounded=0;whiteSpace=wrap;html=1;fontSize=6;fillColor=#dae8fc;strokeColor=#6c8ebf;" vertex="1" parent="1">
          <mxGeometry x="400" y="40" width="24" height="20" as="geometry" />
        </mxCell>
        <mxCell id="cgjGeCCrp3cNuQxphGAQ-395" value="it" style="rounded=0;whiteSpace=wrap;html=1;fontSize=6;fillColor=#dae8fc;strokeColor=#6c8ebf;" vertex="1" parent="1">
          <mxGeometry x="424" y="40" width="24" height="20" as="geometry" />
        </mxCell>
        <mxCell id="cgjGeCCrp3cNuQxphGAQ-396" value="over" style="rounded=0;whiteSpace=wrap;html=1;fontSize=6;fillColor=#dae8fc;strokeColor=#6c8ebf;" vertex="1" parent="1">
          <mxGeometry x="472" y="40" width="24" height="20" as="geometry" />
        </mxCell>
        <mxCell id="cgjGeCCrp3cNuQxphGAQ-397" value="BLANK" style="rounded=0;whiteSpace=wrap;html=1;fontSize=6;fillColor=#e1d5e7;strokeColor=#9673a6;" vertex="1" parent="1">
          <mxGeometry x="496" y="40" width="24" height="20" as="geometry" />
        </mxCell>
        <mxCell id="cgjGeCCrp3cNuQxphGAQ-422" value="and" style="rounded=0;whiteSpace=wrap;html=1;fontSize=7;fillColor=#fff2cc;strokeColor=#d6b656;" vertex="1" parent="1">
          <mxGeometry x="14" y="40" width="24" height="20" as="geometry" />
        </mxCell>
        <mxCell id="cgjGeCCrp3cNuQxphGAQ-423" value="hand" style="rounded=0;whiteSpace=wrap;html=1;fontSize=7;fillColor=#fff2cc;strokeColor=#d6b656;" vertex="1" parent="1">
          <mxGeometry x="46" y="40" width="18" height="20" as="geometry" />
        </mxCell>
        <mxCell id="cgjGeCCrp3cNuQxphGAQ-424" value="it" style="rounded=0;whiteSpace=wrap;html=1;fontSize=7;fillColor=#fff2cc;strokeColor=#d6b656;" vertex="1" parent="1">
          <mxGeometry x="74" y="40" width="12" height="20" as="geometry" />
        </mxCell>
        <mxCell id="cgjGeCCrp3cNuQxphGAQ-425" value="over" style="rounded=0;whiteSpace=wrap;html=1;fontSize=7;fillColor=#fff2cc;strokeColor=#d6b656;" vertex="1" parent="1">
          <mxGeometry x="90" y="40" width="28" height="20" as="geometry" />
        </mxCell>
        <mxCell id="cgjGeCCrp3cNuQxphGAQ-426" value="to" style="rounded=0;whiteSpace=wrap;html=1;fontSize=7;fillColor=#fff2cc;strokeColor=#d6b656;" vertex="1" parent="1">
          <mxGeometry x="118" y="40" width="20" height="20" as="geometry" />
        </mxCell>
        <mxCell id="cgjGeCCrp3cNuQxphGAQ-427" value="and" style="rounded=0;whiteSpace=wrap;html=1;fontSize=7;fillColor=#ffe6cc;strokeColor=#d79b00;" vertex="1" parent="1">
          <mxGeometry x="14" y="60" width="32" height="20" as="geometry" />
        </mxCell>
        <mxCell id="cgjGeCCrp3cNuQxphGAQ-428" value="hand" style="rounded=0;whiteSpace=wrap;html=1;fontSize=7;fillColor=#ffe6cc;strokeColor=#d79b00;" vertex="1" parent="1">
          <mxGeometry x="46" y="60" width="28" height="20" as="geometry" />
        </mxCell>
        <mxCell id="cgjGeCCrp3cNuQxphGAQ-429" value="it" style="rounded=0;whiteSpace=wrap;html=1;fontSize=7;fillColor=#ffe6cc;strokeColor=#d79b00;" vertex="1" parent="1">
          <mxGeometry x="74" y="60" width="16" height="20" as="geometry" />
        </mxCell>
        <mxCell id="cgjGeCCrp3cNuQxphGAQ-430" value="over" style="rounded=0;whiteSpace=wrap;html=1;fontSize=7;fillColor=#ffe6cc;strokeColor=#d79b00;" vertex="1" parent="1">
          <mxGeometry x="90" y="60" width="28" height="20" as="geometry" />
        </mxCell>
        <mxCell id="cgjGeCCrp3cNuQxphGAQ-431" value="to" style="rounded=0;whiteSpace=wrap;html=1;fontSize=7;fillColor=#ffe6cc;strokeColor=#d79b00;" vertex="1" parent="1">
          <mxGeometry x="118" y="60" width="20" height="20" as="geometry" />
        </mxCell>
        <mxCell id="cgjGeCCrp3cNuQxphGAQ-432" value="f1" style="rounded=0;whiteSpace=wrap;html=1;fillColor=#f5f5f5;fontColor=#333333;strokeColor=#666666;fontSize=7;" vertex="1" parent="1">
          <mxGeometry y="80" width="24" height="20" as="geometry" />
        </mxCell>
        <mxCell id="cgjGeCCrp3cNuQxphGAQ-433" value="f2" style="rounded=0;whiteSpace=wrap;html=1;fillColor=#f5f5f5;fontColor=#333333;strokeColor=#666666;fontSize=7;" vertex="1" parent="1">
          <mxGeometry x="24" y="80" width="24" height="20" as="geometry" />
        </mxCell>
        <mxCell id="cgjGeCCrp3cNuQxphGAQ-434" value="f3" style="rounded=0;whiteSpace=wrap;html=1;fillColor=#f5f5f5;fontColor=#333333;strokeColor=#666666;fontSize=7;" vertex="1" parent="1">
          <mxGeometry x="48" y="80" width="24" height="20" as="geometry" />
        </mxCell>
        <mxCell id="cgjGeCCrp3cNuQxphGAQ-435" value="f4" style="rounded=0;whiteSpace=wrap;html=1;fillColor=#f5f5f5;fontColor=#333333;strokeColor=#666666;fontSize=7;" vertex="1" parent="1">
          <mxGeometry x="72" y="80" width="24" height="20" as="geometry" />
        </mxCell>
        <mxCell id="cgjGeCCrp3cNuQxphGAQ-436" value="f5" style="rounded=0;whiteSpace=wrap;html=1;fillColor=#f5f5f5;fontColor=#333333;strokeColor=#666666;fontSize=7;" vertex="1" parent="1">
          <mxGeometry x="96" y="80" width="24" height="20" as="geometry" />
        </mxCell>
        <mxCell id="cgjGeCCrp3cNuQxphGAQ-440" value="EOS" style="rounded=0;whiteSpace=wrap;html=1;fontSize=7;fillColor=#f8cecc;strokeColor=#b85450;" vertex="1" parent="1">
          <mxGeometry x="120" y="80" width="24" height="20" as="geometry" />
        </mxCell>
        <mxCell id="cgjGeCCrp3cNuQxphGAQ-441" value="" style="endArrow=none;html=1;strokeWidth=2;rounded=0;fillColor=#f8cecc;strokeColor=#b85450;fontSize=7;" edge="1" parent="1">
          <mxGeometry width="50" height="50" relative="1" as="geometry">
            <mxPoint x="142" y="80" as="sourcePoint" />
            <mxPoint x="142" y="30" as="targetPoint" />
          </mxGeometry>
        </mxCell>
        <mxCell id="cgjGeCCrp3cNuQxphGAQ-442" value="f1" style="rounded=0;whiteSpace=wrap;html=1;fillColor=#f5f5f5;fontColor=#333333;strokeColor=#666666;fontSize=6;" vertex="1" parent="1">
          <mxGeometry x="280" y="60" width="24" height="20" as="geometry" />
        </mxCell>
        <mxCell id="cgjGeCCrp3cNuQxphGAQ-443" value="f2" style="rounded=0;whiteSpace=wrap;html=1;fillColor=#f5f5f5;fontColor=#333333;strokeColor=#666666;fontSize=6;" vertex="1" parent="1">
          <mxGeometry x="304" y="60" width="24" height="20" as="geometry" />
        </mxCell>
        <mxCell id="cgjGeCCrp3cNuQxphGAQ-444" value="f3" style="rounded=0;whiteSpace=wrap;html=1;fillColor=#f5f5f5;fontColor=#333333;strokeColor=#666666;fontSize=6;" vertex="1" parent="1">
          <mxGeometry x="352" y="60" width="24" height="20" as="geometry" />
        </mxCell>
        <mxCell id="cgjGeCCrp3cNuQxphGAQ-445" value="f4" style="rounded=0;whiteSpace=wrap;html=1;fillColor=#f5f5f5;fontColor=#333333;strokeColor=#666666;fontSize=6;" vertex="1" parent="1">
          <mxGeometry x="376" y="60" width="24" height="20" as="geometry" />
        </mxCell>
        <mxCell id="cgjGeCCrp3cNuQxphGAQ-446" value="f5" style="rounded=0;whiteSpace=wrap;html=1;fillColor=#f5f5f5;fontColor=#333333;strokeColor=#666666;fontSize=6;" vertex="1" parent="1">
          <mxGeometry x="448" y="60" width="24" height="20" as="geometry" />
        </mxCell>
        <mxCell id="cgjGeCCrp3cNuQxphGAQ-447" value="and" style="rounded=0;whiteSpace=wrap;html=1;fontSize=6;fillColor=#dae8fc;strokeColor=#6c8ebf;" vertex="1" parent="1">
          <mxGeometry x="328" y="60" width="24" height="20" as="geometry" />
        </mxCell>
        <mxCell id="cgjGeCCrp3cNuQxphGAQ-448" value="hand" style="rounded=0;whiteSpace=wrap;html=1;fontSize=6;fillColor=#dae8fc;strokeColor=#6c8ebf;" vertex="1" parent="1">
          <mxGeometry x="400" y="60" width="24" height="20" as="geometry" />
        </mxCell>
        <mxCell id="cgjGeCCrp3cNuQxphGAQ-449" value="it" style="rounded=0;whiteSpace=wrap;html=1;fontSize=6;fillColor=#dae8fc;strokeColor=#6c8ebf;" vertex="1" parent="1">
          <mxGeometry x="424" y="60" width="24" height="20" as="geometry" />
        </mxCell>
        <mxCell id="cgjGeCCrp3cNuQxphGAQ-450" value="over" style="rounded=0;whiteSpace=wrap;html=1;fontSize=6;fillColor=#dae8fc;strokeColor=#6c8ebf;" vertex="1" parent="1">
          <mxGeometry x="472" y="60" width="24" height="20" as="geometry" />
        </mxCell>
        <mxCell id="cgjGeCCrp3cNuQxphGAQ-451" value="EOS" style="rounded=0;whiteSpace=wrap;html=1;fontSize=6;fillColor=#f5f5f5;strokeColor=#666666;fontColor=#333333;" vertex="1" parent="1">
          <mxGeometry x="496" y="60" width="24" height="20" as="geometry" />
        </mxCell>
        <mxCell id="cgjGeCCrp3cNuQxphGAQ-452" value="to" style="rounded=0;whiteSpace=wrap;html=1;fontSize=6;fillColor=#e1d5e7;strokeColor=#9673a6;" vertex="1" parent="1">
          <mxGeometry x="520" y="60" width="24" height="20" as="geometry" />
        </mxCell>
        <mxCell id="cgjGeCCrp3cNuQxphGAQ-453" value="f1" style="rounded=0;whiteSpace=wrap;html=1;fillColor=#f5f5f5;fontColor=#333333;strokeColor=#666666;fontSize=6;" vertex="1" parent="1">
          <mxGeometry x="280" y="80" width="24" height="20" as="geometry" />
        </mxCell>
        <mxCell id="cgjGeCCrp3cNuQxphGAQ-454" value="f2" style="rounded=0;whiteSpace=wrap;html=1;fillColor=#f5f5f5;fontColor=#333333;strokeColor=#666666;fontSize=6;" vertex="1" parent="1">
          <mxGeometry x="304" y="80" width="24" height="20" as="geometry" />
        </mxCell>
        <mxCell id="cgjGeCCrp3cNuQxphGAQ-455" value="f3" style="rounded=0;whiteSpace=wrap;html=1;fillColor=#f5f5f5;fontColor=#333333;strokeColor=#666666;fontSize=6;" vertex="1" parent="1">
          <mxGeometry x="352" y="80" width="24" height="20" as="geometry" />
        </mxCell>
        <mxCell id="cgjGeCCrp3cNuQxphGAQ-456" value="f4" style="rounded=0;whiteSpace=wrap;html=1;fillColor=#f5f5f5;fontColor=#333333;strokeColor=#666666;fontSize=6;" vertex="1" parent="1">
          <mxGeometry x="376" y="80" width="24" height="20" as="geometry" />
        </mxCell>
        <mxCell id="cgjGeCCrp3cNuQxphGAQ-457" value="f5" style="rounded=0;whiteSpace=wrap;html=1;fillColor=#f5f5f5;fontColor=#333333;strokeColor=#666666;fontSize=6;" vertex="1" parent="1">
          <mxGeometry x="448" y="80" width="24" height="20" as="geometry" />
        </mxCell>
        <mxCell id="cgjGeCCrp3cNuQxphGAQ-458" value="and" style="rounded=0;whiteSpace=wrap;html=1;fontSize=6;fillColor=#dae8fc;strokeColor=#6c8ebf;" vertex="1" parent="1">
          <mxGeometry x="328" y="80" width="24" height="20" as="geometry" />
        </mxCell>
        <mxCell id="cgjGeCCrp3cNuQxphGAQ-459" value="hand" style="rounded=0;whiteSpace=wrap;html=1;fontSize=6;fillColor=#dae8fc;strokeColor=#6c8ebf;" vertex="1" parent="1">
          <mxGeometry x="400" y="80" width="24" height="20" as="geometry" />
        </mxCell>
        <mxCell id="cgjGeCCrp3cNuQxphGAQ-460" value="it" style="rounded=0;whiteSpace=wrap;html=1;fontSize=6;fillColor=#dae8fc;strokeColor=#6c8ebf;" vertex="1" parent="1">
          <mxGeometry x="424" y="80" width="24" height="20" as="geometry" />
        </mxCell>
        <mxCell id="cgjGeCCrp3cNuQxphGAQ-461" value="over" style="rounded=0;whiteSpace=wrap;html=1;fontSize=6;fillColor=#dae8fc;strokeColor=#6c8ebf;" vertex="1" parent="1">
          <mxGeometry x="472" y="80" width="24" height="20" as="geometry" />
        </mxCell>
        <mxCell id="cgjGeCCrp3cNuQxphGAQ-462" value="EOS" style="rounded=0;whiteSpace=wrap;html=1;fontSize=6;fillColor=#f5f5f5;strokeColor=#666666;fontColor=#333333;" vertex="1" parent="1">
          <mxGeometry x="496" y="80" width="24" height="20" as="geometry" />
        </mxCell>
        <mxCell id="cgjGeCCrp3cNuQxphGAQ-463" value="to" style="rounded=0;whiteSpace=wrap;html=1;fontSize=6;fillColor=#dae8fc;strokeColor=#6c8ebf;" vertex="1" parent="1">
          <mxGeometry x="520" y="80" width="24" height="20" as="geometry" />
        </mxCell>
        <mxCell id="cgjGeCCrp3cNuQxphGAQ-464" value="EOS" style="rounded=0;whiteSpace=wrap;html=1;fontSize=6;fillColor=#e1d5e7;strokeColor=#9673a6;" vertex="1" parent="1">
          <mxGeometry x="544" y="80" width="24" height="20" as="geometry" />
        </mxCell>
        <mxCell id="cgjGeCCrp3cNuQxphGAQ-465" value="Alignment" style="text;html=1;align=center;verticalAlign=middle;whiteSpace=wrap;rounded=0;fontStyle=1" vertex="1" parent="1">
          <mxGeometry x="74" y="240" width="60" height="30" as="geometry" />
        </mxCell>
        <mxCell id="cgjGeCCrp3cNuQxphGAQ-467" value="Inference" style="text;html=1;align=center;verticalAlign=middle;whiteSpace=wrap;rounded=0;fontStyle=1" vertex="1" parent="1">
          <mxGeometry x="440" y="240" width="60" height="30" as="geometry" />
        </mxCell>
      </root>
    </mxGraphModel>
  </diagram>
</mxfile>
